# xmcd
# 
# Track frame offsets:
#     150
#     15687
#     35302
#     68810
#     94825
#     121012
#     136197
#     161310
#     177040
#     181775
#     192042
#     211084
#     224125
#     235117
#     246070
#     251797
#     263990
#     281477
#     293955
# 
# Disc length: 4081
# 
# Revision: 13
# Processed by: cddbd v1.5.2PL0 Copyright (c) Steve Scherf et al.
# Submitted via: fre:ac v1.0.31
# 
DISCID=0a0fef13
DTITLE=Original Soundtrack - Lost In Space
DYEAR=1998
DGENRE=Soundtrack
TTITLE0=Apollo Four Forty - Lost In Space (Theme)
TTITLE1=Juno Reactor and The Creatures - I'm Here...Another Planet
TTITLE2=The Crystal Method - Busy Child
TTITLE3=Propellerheads - Bang On!
TTITLE4=Fatboy Slim - Everybody Needs a 303
TTITLE5=Apollo Four Forty - Will and Penny's Theme
TTITLE6=Death In Vegas - Song For Penny
TTITLE7=Space - Lost in Space
TTITLE8=Main Title
TTITLE9=Reprogram the Robot
TTITLE10=The Launch
TTITLE11=The Robot Attack
TTITLE12=The Proteus
TTITLE13=Spiders Attack
TTITLE14=Jupiter Crashes
TTITLE15=Spider Smith
TTITLE16=Kill The Monster
TTITLE17=The Portal
TTITLE18=Thru The Planet
EXTD=YEAR: 1998
EXTT0=
EXTT1=
EXTT2=
EXTT3=
EXTT4=
EXTT5=
EXTT6=
EXTT7=
EXTT8=
EXTT9=
EXTT10=
EXTT11=
EXTT12=
EXTT13=
EXTT14=
EXTT15=
EXTT16=
EXTT17=
EXTT18=
PLAYORDER=
